<?xml version="1.0" encoding="utf-8"?>
<!-- Generator: Adobe Illustrator 22.1.0, SVG Export Plug-In . SVG Version: 6.00 Build 0)  -->
<svg version="1.1" id="Layer_1" xmlns="http://www.w3.org/2000/svg" xmlns:xlink="http://www.w3.org/1999/xlink" x="0px" y="0px"
	 viewBox="0 0 512 512" style="enable-background:new 0 0 512 512;" xml:space="preserve">
<g>
	<path d="M427.7,355.4c15.2-11.6,25.2-29.6,25.2-50.2c0-35-28.3-63.3-63.3-63.3h-12.4c11.8-10.3,19.4-25.3,19.4-42.2
		c0-31.1-25.2-56.2-56.2-56.2h-5.2c3.1-8.8,5.2-18.2,5.2-28.1c0-46.6-37.8-84.4-84.4-84.4c-4.5,0-8.9,0.7-13.3,1.3
		C251,43.9,256,57.9,256,73.2c0,38.8-31.5,70.3-70.3,70.3h-14.1c-31.1,0-56.2,25.2-56.2,56.2c0,16.9,7.6,31.9,19.4,42.2h-12.4
		c-34.9,0-63.3,28.3-63.3,63.3c0,20.6,10,38.7,25.2,50.2C54.1,360.3,31,386.2,31,417.7c0,34.9,28.3,63.3,63.3,63.3h323.4
		c34.9,0,63.3-28.3,63.3-63.3C481,386.2,457.9,360.3,427.7,355.4z"/>
</g>
</svg>
